<?xml version="1.0" encoding="UTF-8" standalone="no"?>
<!DOCTYPE svg PUBLIC "-//W3C//DTD SVG 1.1//EN"
 "http://www.w3.org/Graphics/SVG/1.1/DTD/svg11.dtd">
<!-- Generated by graphviz version 8.1.0 (20230707.0739)
 -->
<!-- Title: inherit Pages: 1 -->
<svg width="385pt" height="451pt"
 viewBox="0.00 0.00 385.25 451.25" xmlns="http://www.w3.org/2000/svg" xmlns:xlink="http://www.w3.org/1999/xlink">
<g id="graph0" class="graph" transform="scale(1 1) rotate(0) translate(4 447.25)">
<title>inherit</title>
<polygon fill="black" stroke="none" points="-4,4 -4,-447.25 381.25,-447.25 381.25,4 -4,4"/>
<!-- object -->
<g id="node1" class="node">
<title>object</title>
<path fill="#ffffff" stroke="black" stroke-width="0" d="M7.42,-210.5C7.42,-210.5 46.58,-210.5 46.58,-210.5 50.29,-210.5 54,-214.21 54,-217.92 54,-217.92 54,-225.33 54,-225.33 54,-229.04 50.29,-232.75 46.58,-232.75 46.58,-232.75 7.42,-232.75 7.42,-232.75 3.71,-232.75 0,-229.04 0,-225.33 0,-225.33 0,-217.92 0,-217.92 0,-214.21 3.71,-210.5 7.42,-210.5"/>
<text text-anchor="middle" x="27" y="-217.35" font-family="Times,serif" font-size="12.00">object</text>
</g>
<!-- container -->
<g id="node2" class="node">
<title>container</title>
<path fill="#ffffff" stroke="black" stroke-width="0" d="M97.42,-240.5C97.42,-240.5 156.33,-240.5 156.33,-240.5 160.04,-240.5 163.75,-244.21 163.75,-247.92 163.75,-247.92 163.75,-255.33 163.75,-255.33 163.75,-259.04 160.04,-262.75 156.33,-262.75 156.33,-262.75 97.42,-262.75 97.42,-262.75 93.71,-262.75 90,-259.04 90,-255.33 90,-255.33 90,-247.92 90,-247.92 90,-244.21 93.71,-240.5 97.42,-240.5"/>
<text text-anchor="middle" x="126.88" y="-247.35" font-family="Times,serif" font-size="12.00">container</text>
</g>
<!-- container&#45;&gt;object -->
<g id="edge1" class="edge">
<title>container&#45;&gt;object</title>
<path fill="none" stroke="#a0a0a0" d="M90.26,-240.71C80.21,-237.63 69.35,-234.3 59.55,-231.3"/>
<polygon fill="#a0a0a0" stroke="#a0a0a0" points="60.21,-229.36 54.92,-229.57 59.19,-232.71 60.21,-229.36"/>
</g>
<!-- view -->
<g id="node3" class="node">
<title>view</title>
<path fill="#ff8080" stroke="black" stroke-width="0" d="M208.42,-300.5C208.42,-300.5 247.58,-300.5 247.58,-300.5 251.29,-300.5 255,-304.21 255,-307.92 255,-307.92 255,-315.33 255,-315.33 255,-319.04 251.29,-322.75 247.58,-322.75 247.58,-322.75 208.42,-322.75 208.42,-322.75 204.71,-322.75 201,-319.04 201,-315.33 201,-315.33 201,-307.92 201,-307.92 201,-304.21 204.71,-300.5 208.42,-300.5"/>
<text text-anchor="middle" x="228" y="-307.35" font-family="Times,serif" font-size="12.00">view</text>
</g>
<!-- view&#45;&gt;container -->
<g id="edge2" class="edge">
<title>view&#45;&gt;container</title>
<path fill="none" stroke="#a0a0a0" d="M208.21,-300.65C205.37,-298.98 202.48,-297.26 199.75,-295.62 183.32,-285.77 164.9,-274.49 150.82,-265.82"/>
<polygon fill="#a0a0a0" stroke="#a0a0a0" points="152.01,-263.88 146.84,-262.75 150.18,-266.86 152.01,-263.88"/>
</g>
<!-- source -->
<g id="node4" class="node">
<title>source</title>
<path fill="#ffff80" stroke="black" stroke-width="0" d="M207.17,-270.5C207.17,-270.5 248.83,-270.5 248.83,-270.5 252.54,-270.5 256.25,-274.21 256.25,-277.92 256.25,-277.92 256.25,-285.33 256.25,-285.33 256.25,-289.04 252.54,-292.75 248.83,-292.75 248.83,-292.75 207.17,-292.75 207.17,-292.75 203.46,-292.75 199.75,-289.04 199.75,-285.33 199.75,-285.33 199.75,-277.92 199.75,-277.92 199.75,-274.21 203.46,-270.5 207.17,-270.5"/>
<text text-anchor="middle" x="228" y="-277.35" font-family="Times,serif" font-size="12.00">source</text>
</g>
<!-- source&#45;&gt;container -->
<g id="edge4" class="edge">
<title>source&#45;&gt;container</title>
<path fill="none" stroke="#a0a0a0" d="M199.91,-273.43C190.43,-270.56 179.56,-267.27 169.19,-264.13"/>
<polygon fill="#a0a0a0" stroke="#a0a0a0" points="169.78,-262.18 164.49,-262.4 168.77,-265.53 169.78,-262.18"/>
</g>
<!-- calendar -->
<g id="node5" class="node">
<title>calendar</title>
<path fill="#ffff80" stroke="black" stroke-width="0" d="M307.54,-420.5C307.54,-420.5 361.96,-420.5 361.96,-420.5 365.67,-420.5 369.38,-424.21 369.38,-427.92 369.38,-427.92 369.38,-435.33 369.38,-435.33 369.38,-439.04 365.67,-442.75 361.96,-442.75 361.96,-442.75 307.54,-442.75 307.54,-442.75 303.83,-442.75 300.12,-439.04 300.12,-435.33 300.12,-435.33 300.12,-427.92 300.12,-427.92 300.12,-424.21 303.83,-420.5 307.54,-420.5"/>
<text text-anchor="middle" x="334.75" y="-427.35" font-family="Times,serif" font-size="12.00">calendar</text>
</g>
<!-- calendar&#45;&gt;source -->
<g id="edge7" class="edge">
<title>calendar&#45;&gt;source</title>
<path fill="none" stroke="#a0a0a0" d="M300.27,-422C297.31,-420.22 294.56,-418.11 292.25,-415.62 254.9,-375.49 290.21,-340.67 256.25,-297.62 255.98,-297.29 255.71,-296.95 255.42,-296.62"/>
<polygon fill="#a0a0a0" stroke="#a0a0a0" points="257.12,-295.87 252.3,-293.68 254.7,-298.4 257.12,-295.87"/>
</g>
<!-- contact_list -->
<g id="node6" class="node">
<title>contact_list</title>
<path fill="#ffff80" stroke="black" stroke-width="0" d="M299.67,-390.5C299.67,-390.5 369.83,-390.5 369.83,-390.5 373.54,-390.5 377.25,-394.21 377.25,-397.92 377.25,-397.92 377.25,-405.33 377.25,-405.33 377.25,-409.04 373.54,-412.75 369.83,-412.75 369.83,-412.75 299.67,-412.75 299.67,-412.75 295.96,-412.75 292.25,-409.04 292.25,-405.33 292.25,-405.33 292.25,-397.92 292.25,-397.92 292.25,-394.21 295.96,-390.5 299.67,-390.5"/>
<text text-anchor="middle" x="334.75" y="-397.35" font-family="Times,serif" font-size="12.00">contact_list</text>
</g>
<!-- contact_list&#45;&gt;source -->
<g id="edge8" class="edge">
<title>contact_list&#45;&gt;source</title>
<path fill="none" stroke="#a0a0a0" d="M298.48,-390.54C296.23,-389.09 294.13,-387.46 292.25,-385.62 262.07,-356.05 283.93,-329.56 256.25,-297.62 255.85,-297.17 255.44,-296.72 255.02,-296.29"/>
<polygon fill="#a0a0a0" stroke="#a0a0a0" points="256.77,-295.61 251.86,-293.62 254.45,-298.24 256.77,-295.61"/>
</g>
<!-- imap -->
<g id="node7" class="node">
<title>imap</title>
<path fill="#ffff80" stroke="black" stroke-width="0" d="M315.17,-360.5C315.17,-360.5 354.33,-360.5 354.33,-360.5 358.04,-360.5 361.75,-364.21 361.75,-367.92 361.75,-367.92 361.75,-375.33 361.75,-375.33 361.75,-379.04 358.04,-382.75 354.33,-382.75 354.33,-382.75 315.17,-382.75 315.17,-382.75 311.46,-382.75 307.75,-379.04 307.75,-375.33 307.75,-375.33 307.75,-367.92 307.75,-367.92 307.75,-364.21 311.46,-360.5 315.17,-360.5"/>
<text text-anchor="middle" x="334.75" y="-367.35" font-family="Times,serif" font-size="12.00">imap</text>
</g>
<!-- imap&#45;&gt;source -->
<g id="edge9" class="edge">
<title>imap&#45;&gt;source</title>
<path fill="none" stroke="#a0a0a0" d="M307.75,-364.57C302.26,-362.3 296.77,-359.37 292.25,-355.62 268.88,-336.27 277.97,-318.81 256.25,-297.62 255.8,-297.18 255.33,-296.75 254.85,-296.33"/>
<polygon fill="#a0a0a0" stroke="#a0a0a0" points="256.29,-294.44 251.28,-292.7 254.11,-297.18 256.29,-294.44"/>
</g>
<!-- maildir -->
<g id="node8" class="node">
<title>maildir</title>
<path fill="#ffff80" stroke="black" stroke-width="0" d="M312.42,-330.5C312.42,-330.5 357.08,-330.5 357.08,-330.5 360.79,-330.5 364.5,-334.21 364.5,-337.92 364.5,-337.92 364.5,-345.33 364.5,-345.33 364.5,-349.04 360.79,-352.75 357.08,-352.75 357.08,-352.75 312.42,-352.75 312.42,-352.75 308.71,-352.75 305,-349.04 305,-345.33 305,-345.33 305,-337.92 305,-337.92 305,-334.21 308.71,-330.5 312.42,-330.5"/>
<text text-anchor="middle" x="334.75" y="-337.35" font-family="Times,serif" font-size="12.00">maildir</text>
</g>
<!-- maildir&#45;&gt;source -->
<g id="edge10" class="edge">
<title>maildir&#45;&gt;source</title>
<path fill="none" stroke="#a0a0a0" d="M305.11,-331.86C300.71,-330 296.28,-327.9 292.25,-325.62 274.6,-315.65 273.03,-309 256.25,-297.62 255.33,-297 254.39,-296.38 253.43,-295.75"/>
<polygon fill="#a0a0a0" stroke="#a0a0a0" points="254.71,-293.86 249.54,-292.68 252.85,-296.83 254.71,-293.86"/>
</g>
<!-- mbox -->
<g id="node9" class="node">
<title>mbox</title>
<path fill="#ffff80" stroke="black" stroke-width="0" d="M315.17,-300.5C315.17,-300.5 354.33,-300.5 354.33,-300.5 358.04,-300.5 361.75,-304.21 361.75,-307.92 361.75,-307.92 361.75,-315.33 361.75,-315.33 361.75,-319.04 358.04,-322.75 354.33,-322.75 354.33,-322.75 315.17,-322.75 315.17,-322.75 311.46,-322.75 307.75,-319.04 307.75,-315.33 307.75,-315.33 307.75,-307.92 307.75,-307.92 307.75,-304.21 311.46,-300.5 315.17,-300.5"/>
<text text-anchor="middle" x="334.75" y="-307.35" font-family="Times,serif" font-size="12.00">mbox</text>
</g>
<!-- mbox&#45;&gt;source -->
<g id="edge11" class="edge">
<title>mbox&#45;&gt;source</title>
<path fill="none" stroke="#a0a0a0" d="M307.86,-304.21C293.95,-300.23 276.66,-295.28 261.82,-291.03"/>
<polygon fill="#a0a0a0" stroke="#a0a0a0" points="262.35,-289.07 257.06,-289.37 261.38,-292.43 262.35,-289.07"/>
</g>
<!-- nntp -->
<g id="node10" class="node">
<title>nntp</title>
<path fill="#ffff80" stroke="black" stroke-width="0" d="M315.17,-270.5C315.17,-270.5 354.33,-270.5 354.33,-270.5 358.04,-270.5 361.75,-274.21 361.75,-277.92 361.75,-277.92 361.75,-285.33 361.75,-285.33 361.75,-289.04 358.04,-292.75 354.33,-292.75 354.33,-292.75 315.17,-292.75 315.17,-292.75 311.46,-292.75 307.75,-289.04 307.75,-285.33 307.75,-285.33 307.75,-277.92 307.75,-277.92 307.75,-274.21 311.46,-270.5 315.17,-270.5"/>
<text text-anchor="middle" x="334.75" y="-277.35" font-family="Times,serif" font-size="12.00">nntp</text>
</g>
<!-- nntp&#45;&gt;source -->
<g id="edge12" class="edge">
<title>nntp&#45;&gt;source</title>
<path fill="none" stroke="#a0a0a0" d="M307.86,-281.62C293.95,-281.62 276.66,-281.62 261.82,-281.62"/>
<polygon fill="#a0a0a0" stroke="#a0a0a0" points="262.06,-279.88 257.06,-281.62 262.06,-283.38 262.06,-279.88"/>
</g>
<!-- rss -->
<g id="node11" class="node">
<title>rss</title>
<path fill="#ffff80" stroke="black" stroke-width="0" d="M315.17,-240.5C315.17,-240.5 354.33,-240.5 354.33,-240.5 358.04,-240.5 361.75,-244.21 361.75,-247.92 361.75,-247.92 361.75,-255.33 361.75,-255.33 361.75,-259.04 358.04,-262.75 354.33,-262.75 354.33,-262.75 315.17,-262.75 315.17,-262.75 311.46,-262.75 307.75,-259.04 307.75,-255.33 307.75,-255.33 307.75,-247.92 307.75,-247.92 307.75,-244.21 311.46,-240.5 315.17,-240.5"/>
<text text-anchor="middle" x="334.75" y="-247.35" font-family="Times,serif" font-size="12.00">rss</text>
</g>
<!-- rss&#45;&gt;source -->
<g id="edge13" class="edge">
<title>rss&#45;&gt;source</title>
<path fill="none" stroke="#a0a0a0" d="M307.86,-259.04C293.95,-263.02 276.66,-267.97 261.82,-272.22"/>
<polygon fill="#a0a0a0" stroke="#a0a0a0" points="261.38,-270.82 257.06,-273.88 262.35,-274.18 261.38,-270.82"/>
</g>
<!-- search -->
<g id="node12" class="node">
<title>search</title>
<path fill="#ffff80" stroke="black" stroke-width="0" d="M313.92,-210.5C313.92,-210.5 355.58,-210.5 355.58,-210.5 359.29,-210.5 363,-214.21 363,-217.92 363,-217.92 363,-225.33 363,-225.33 363,-229.04 359.29,-232.75 355.58,-232.75 355.58,-232.75 313.92,-232.75 313.92,-232.75 310.21,-232.75 306.5,-229.04 306.5,-225.33 306.5,-225.33 306.5,-217.92 306.5,-217.92 306.5,-214.21 310.21,-210.5 313.92,-210.5"/>
<text text-anchor="middle" x="334.75" y="-217.35" font-family="Times,serif" font-size="12.00">search</text>
</g>
<!-- search&#45;&gt;source -->
<g id="edge14" class="edge">
<title>search&#45;&gt;source</title>
<path fill="none" stroke="#a0a0a0" d="M306.54,-231.04C301.69,-233.02 296.75,-235.24 292.25,-237.62 276.19,-246.15 259.35,-258.03 247.08,-267.3"/>
<polygon fill="#a0a0a0" stroke="#a0a0a0" points="246.36,-266.41 243.46,-270.83 248.49,-269.19 246.36,-266.41"/>
</g>
<!-- task_list -->
<g id="node13" class="node">
<title>task_list</title>
<path fill="#ffff80" stroke="black" stroke-width="0" d="M309.42,-180.5C309.42,-180.5 360.08,-180.5 360.08,-180.5 363.79,-180.5 367.5,-184.21 367.5,-187.92 367.5,-187.92 367.5,-195.33 367.5,-195.33 367.5,-199.04 363.79,-202.75 360.08,-202.75 360.08,-202.75 309.42,-202.75 309.42,-202.75 305.71,-202.75 302,-199.04 302,-195.33 302,-195.33 302,-187.92 302,-187.92 302,-184.21 305.71,-180.5 309.42,-180.5"/>
<text text-anchor="middle" x="334.75" y="-187.35" font-family="Times,serif" font-size="12.00">task_list</text>
</g>
<!-- task_list&#45;&gt;source -->
<g id="edge15" class="edge">
<title>task_list&#45;&gt;source</title>
<path fill="none" stroke="#a0a0a0" d="M302.07,-201.91C298.63,-203.58 295.28,-205.48 292.25,-207.62 269.74,-223.55 250.24,-249.23 239.05,-265.76"/>
<polygon fill="#a0a0a0" stroke="#a0a0a0" points="237.16,-264.44 235.85,-269.58 240.07,-266.38 237.16,-264.44"/>
</g>
<!-- folder -->
<g id="node14" class="node">
<title>folder</title>
<path fill="#80ff80" stroke="black" stroke-width="0" d="M208.42,-180.5C208.42,-180.5 247.58,-180.5 247.58,-180.5 251.29,-180.5 255,-184.21 255,-187.92 255,-187.92 255,-195.33 255,-195.33 255,-199.04 251.29,-202.75 247.58,-202.75 247.58,-202.75 208.42,-202.75 208.42,-202.75 204.71,-202.75 201,-199.04 201,-195.33 201,-195.33 201,-187.92 201,-187.92 201,-184.21 204.71,-180.5 208.42,-180.5"/>
<text text-anchor="middle" x="228" y="-187.35" font-family="Times,serif" font-size="12.00">folder</text>
</g>
<!-- folder&#45;&gt;container -->
<g id="edge3" class="edge">
<title>folder&#45;&gt;container</title>
<path fill="none" stroke="#a0a0a0" d="M208.82,-202.63C192.47,-212.53 168.38,-227.11 150.74,-237.79"/>
<polygon fill="#a0a0a0" stroke="#a0a0a0" points="150.31,-236.6 146.94,-240.69 152.12,-239.6 150.31,-236.6"/>
</g>
<!-- month -->
<g id="node15" class="node">
<title>month</title>
<path fill="#80ff80" stroke="black" stroke-width="0" d="M315.04,-150.5C315.04,-150.5 354.46,-150.5 354.46,-150.5 358.17,-150.5 361.88,-154.21 361.88,-157.92 361.88,-157.92 361.88,-165.33 361.88,-165.33 361.88,-169.04 358.17,-172.75 354.46,-172.75 354.46,-172.75 315.04,-172.75 315.04,-172.75 311.33,-172.75 307.62,-169.04 307.62,-165.33 307.62,-165.33 307.62,-157.92 307.62,-157.92 307.62,-154.21 311.33,-150.5 315.04,-150.5"/>
<text text-anchor="middle" x="334.75" y="-157.35" font-family="Times,serif" font-size="12.00">month</text>
</g>
<!-- month&#45;&gt;folder -->
<g id="edge6" class="edge">
<title>month&#45;&gt;folder</title>
<path fill="none" stroke="#a0a0a0" d="M307.86,-169.04C293.5,-173.15 275.55,-178.29 260.4,-182.63"/>
<polygon fill="#a0a0a0" stroke="#a0a0a0" points="260.28,-181.13 255.96,-184.19 261.25,-184.5 260.28,-181.13"/>
</g>
<!-- item -->
<g id="node16" class="node">
<title>item</title>
<path fill="#80ffff" stroke="black" stroke-width="0" d="M208.42,-75.5C208.42,-75.5 247.58,-75.5 247.58,-75.5 251.29,-75.5 255,-79.21 255,-82.92 255,-82.92 255,-90.33 255,-90.33 255,-94.04 251.29,-97.75 247.58,-97.75 247.58,-97.75 208.42,-97.75 208.42,-97.75 204.71,-97.75 201,-94.04 201,-90.33 201,-90.33 201,-82.92 201,-82.92 201,-79.21 204.71,-75.5 208.42,-75.5"/>
<text text-anchor="middle" x="228" y="-82.35" font-family="Times,serif" font-size="12.00">item</text>
</g>
<!-- item&#45;&gt;object -->
<g id="edge5" class="edge">
<title>item&#45;&gt;object</title>
<path fill="none" stroke="#a0a0a0" d="M210.71,-97.67C174.77,-122.06 88.67,-180.47 48.85,-207.48"/>
<polygon fill="#a0a0a0" stroke="#a0a0a0" points="48.39,-206.36 45.23,-210.61 50.35,-209.26 48.39,-206.36"/>
</g>
<!-- article -->
<g id="node17" class="node">
<title>article</title>
<path fill="#80ffff" stroke="black" stroke-width="0" d="M314.67,-120.5C314.67,-120.5 354.83,-120.5 354.83,-120.5 358.54,-120.5 362.25,-124.21 362.25,-127.92 362.25,-127.92 362.25,-135.33 362.25,-135.33 362.25,-139.04 358.54,-142.75 354.83,-142.75 354.83,-142.75 314.67,-142.75 314.67,-142.75 310.96,-142.75 307.25,-139.04 307.25,-135.33 307.25,-135.33 307.25,-127.92 307.25,-127.92 307.25,-124.21 310.96,-120.5 314.67,-120.5"/>
<text text-anchor="middle" x="334.75" y="-127.35" font-family="Times,serif" font-size="12.00">article</text>
</g>
<!-- article&#45;&gt;item -->
<g id="edge16" class="edge">
<title>article&#45;&gt;item</title>
<path fill="none" stroke="#a0a0a0" d="M307.31,-121.71C302.28,-119.75 297.09,-117.66 292.25,-115.62 280.77,-110.79 268.28,-105.14 257.45,-100.12"/>
<polygon fill="#a0a0a0" stroke="#a0a0a0" points="258.55,-98.24 253.28,-97.72 257.07,-101.41 258.55,-98.24"/>
</g>
<!-- contact -->
<g id="node18" class="node">
<title>contact</title>
<path fill="#80ffff" stroke="black" stroke-width="0" d="M311.67,-90.5C311.67,-90.5 357.83,-90.5 357.83,-90.5 361.54,-90.5 365.25,-94.21 365.25,-97.92 365.25,-97.92 365.25,-105.33 365.25,-105.33 365.25,-109.04 361.54,-112.75 357.83,-112.75 357.83,-112.75 311.67,-112.75 311.67,-112.75 307.96,-112.75 304.25,-109.04 304.25,-105.33 304.25,-105.33 304.25,-97.92 304.25,-97.92 304.25,-94.21 307.96,-90.5 311.67,-90.5"/>
<text text-anchor="middle" x="334.75" y="-97.35" font-family="Times,serif" font-size="12.00">contact</text>
</g>
<!-- contact&#45;&gt;item -->
<g id="edge17" class="edge">
<title>contact&#45;&gt;item</title>
<path fill="none" stroke="#a0a0a0" d="M304.29,-97.41C290.63,-95.45 274.38,-93.12 260.48,-91.13"/>
<polygon fill="#a0a0a0" stroke="#a0a0a0" points="260.88,-89.28 255.68,-90.3 260.38,-92.74 260.88,-89.28"/>
</g>
<!-- email -->
<g id="node19" class="node">
<title>email</title>
<path fill="#80ffff" stroke="black" stroke-width="0" d="M315.17,-60.5C315.17,-60.5 354.33,-60.5 354.33,-60.5 358.04,-60.5 361.75,-64.21 361.75,-67.92 361.75,-67.92 361.75,-75.33 361.75,-75.33 361.75,-79.04 358.04,-82.75 354.33,-82.75 354.33,-82.75 315.17,-82.75 315.17,-82.75 311.46,-82.75 307.75,-79.04 307.75,-75.33 307.75,-75.33 307.75,-67.92 307.75,-67.92 307.75,-64.21 311.46,-60.5 315.17,-60.5"/>
<text text-anchor="middle" x="334.75" y="-67.35" font-family="Times,serif" font-size="12.00">email</text>
</g>
<!-- email&#45;&gt;item -->
<g id="edge18" class="edge">
<title>email&#45;&gt;item</title>
<path fill="none" stroke="#a0a0a0" d="M307.86,-75.33C293.63,-77.37 275.86,-79.91 260.8,-82.07"/>
<polygon fill="#a0a0a0" stroke="#a0a0a0" points="260.66,-80.47 255.96,-82.91 261.16,-83.93 260.66,-80.47"/>
</g>
<!-- event -->
<g id="node20" class="node">
<title>event</title>
<path fill="#80ffff" stroke="black" stroke-width="0" d="M315.17,-30.5C315.17,-30.5 354.33,-30.5 354.33,-30.5 358.04,-30.5 361.75,-34.21 361.75,-37.92 361.75,-37.92 361.75,-45.33 361.75,-45.33 361.75,-49.04 358.04,-52.75 354.33,-52.75 354.33,-52.75 315.17,-52.75 315.17,-52.75 311.46,-52.75 307.75,-49.04 307.75,-45.33 307.75,-45.33 307.75,-37.92 307.75,-37.92 307.75,-34.21 311.46,-30.5 315.17,-30.5"/>
<text text-anchor="middle" x="334.75" y="-37.35" font-family="Times,serif" font-size="12.00">event</text>
</g>
<!-- event&#45;&gt;item -->
<g id="edge19" class="edge">
<title>event&#45;&gt;item</title>
<path fill="none" stroke="#a0a0a0" d="M308.19,-51.19C302.9,-53.25 297.37,-55.47 292.25,-57.62 280.77,-62.46 268.28,-68.11 257.45,-73.13"/>
<polygon fill="#a0a0a0" stroke="#a0a0a0" points="257.07,-71.84 253.28,-75.53 258.55,-75.01 257.07,-71.84"/>
</g>
<!-- task -->
<g id="node21" class="node">
<title>task</title>
<path fill="#80ffff" stroke="black" stroke-width="0" d="M315.17,-0.5C315.17,-0.5 354.33,-0.5 354.33,-0.5 358.04,-0.5 361.75,-4.21 361.75,-7.92 361.75,-7.92 361.75,-15.33 361.75,-15.33 361.75,-19.04 358.04,-22.75 354.33,-22.75 354.33,-22.75 315.17,-22.75 315.17,-22.75 311.46,-22.75 307.75,-19.04 307.75,-15.33 307.75,-15.33 307.75,-7.92 307.75,-7.92 307.75,-4.21 311.46,-0.5 315.17,-0.5"/>
<text text-anchor="middle" x="334.75" y="-7.35" font-family="Times,serif" font-size="12.00">task</text>
</g>
<!-- task&#45;&gt;item -->
<g id="edge20" class="edge">
<title>task&#45;&gt;item</title>
<path fill="none" stroke="#a0a0a0" d="M307.99,-19.79C302.6,-21.98 297.09,-24.59 292.25,-27.62 272.81,-39.79 254.05,-58.44 242.08,-71.51"/>
<polygon fill="#a0a0a0" stroke="#a0a0a0" points="241.34,-69.83 239.29,-74.71 243.94,-72.17 241.34,-69.83"/>
</g>
</g>
</svg>
